# This file uses centimeters as units for non-parametric coordinates.

v 0.951057 0.309017 -1.000000
v 0.809018 0.587786 -1.000000
v 0.587786 0.809017 -1.000000
v 0.309017 0.951057 -1.000000
v 0.000000 1.000000 -1.000000
v -0.309017 0.951057 -1.000000
v -0.587785 0.809017 -1.000000
v -0.809017 0.587785 -1.000000
v -0.951057 0.309017 -1.000000
v -1.000000 0.000000 -1.000000
v -0.951057 -0.309017 -1.000000
v -0.809017 -0.587785 -1.000000
v -0.587785 -0.809017 -1.000000
v -0.309017 -0.951057 -1.000000
v -0.000000 -1.000000 -1.000000
v 0.309017 -0.951057 -1.000000
v 0.587785 -0.809017 -1.000000
v 0.809017 -0.587785 -1.000000
v 0.951057 -0.309017 -1.000000
v 1.000000 0.000000 -1.000000
v 0.636260 0.206733 0.000000
v 0.541235 0.393230 0.000000
v 0.393230 0.541235 0.000000
v 0.206733 0.636260 0.000000
v -0.000000 0.669003 0.000000
v -0.206733 0.636260 0.000000
v -0.393230 0.541235 0.000000
v -0.541235 0.393230 0.000000
v -0.636260 0.206733 0.000000
v -0.669003 0.000000 0.000000
v -0.636260 -0.206733 0.000000
v -0.541235 -0.393230 0.000000
v -0.393230 -0.541235 0.000000
v -0.206733 -0.636260 0.000000
v -0.000000 -0.669003 0.000000
v 0.206733 -0.636260 0.000000
v 0.393230 -0.541235 0.000000
v 0.541235 -0.393230 0.000000
v 0.636260 -0.206733 0.000000
v 0.669003 0.000000 0.000000
v 0.951057 0.309017 1.000000
v 0.809018 0.587786 1.000000
v 0.587786 0.809017 1.000000
v 0.309017 0.951057 1.000000
v 0.000000 1.000000 1.000000
v -0.309017 0.951057 1.000000
v -0.587785 0.809017 1.000000
v -0.809017 0.587785 1.000000
v -0.951057 0.309017 1.000000
v -1.000000 0.000000 1.000000
v -0.951057 -0.309017 1.000000
v -0.809017 -0.587785 1.000000
v -0.587785 -0.809017 1.000000
v -0.309017 -0.951057 1.000000
v -0.000000 -1.000000 1.000000
v 0.309017 -0.951057 1.000000
v 0.587785 -0.809017 1.000000
v 0.809017 -0.587785 1.000000
v 0.951057 -0.309017 1.000000
v 1.000000 0.000000 1.000000
v 0.000000 0.000000 -1.000000
v 0.000000 0.000000 1.000000
vt 0.648603 0.107966
vt 0.626409 0.064408
vt 0.591842 0.029841
vt 0.548284 0.007647
vt 0.500000 -0.000000
vt 0.451716 0.007647
vt 0.408159 0.029841
vt 0.373591 0.064409
vt 0.351397 0.107966
vt 0.343750 0.156250
vt 0.351397 0.204534
vt 0.373591 0.248091
vt 0.408159 0.282659
vt 0.451716 0.304853
vt 0.500000 0.312500
vt 0.548284 0.304853
vt 0.591841 0.282659
vt 0.626409 0.248091
vt 0.648603 0.204534
vt 0.656250 0.156250
vt 0.375000 0.312500
vt 0.387500 0.312500
vt 0.400000 0.312500
vt 0.412500 0.312500
vt 0.425000 0.312500
vt 0.437500 0.312500
vt 0.450000 0.312500
vt 0.462500 0.312500
vt 0.475000 0.312500
vt 0.487500 0.312500
vt 0.500000 0.312500
vt 0.512500 0.312500
vt 0.525000 0.312500
vt 0.537500 0.312500
vt 0.550000 0.312500
vt 0.562500 0.312500
vt 0.575000 0.312500
vt 0.587500 0.312500
vt 0.600000 0.312500
vt 0.612500 0.312500
vt 0.625000 0.312500
vt 0.375000 0.500000
vt 0.387500 0.500000
vt 0.400000 0.500000
vt 0.412500 0.500000
vt 0.425000 0.500000
vt 0.437500 0.500000
vt 0.450000 0.500000
vt 0.462500 0.500000
vt 0.475000 0.500000
vt 0.487500 0.500000
vt 0.500000 0.500000
vt 0.512500 0.500000
vt 0.525000 0.500000
vt 0.537500 0.500000
vt 0.550000 0.500000
vt 0.562500 0.500000
vt 0.575000 0.500000
vt 0.587500 0.500000
vt 0.600000 0.500000
vt 0.612500 0.500000
vt 0.625000 0.500000
vt 0.375000 0.687500
vt 0.387500 0.687500
vt 0.400000 0.687500
vt 0.412500 0.687500
vt 0.425000 0.687500
vt 0.437500 0.687500
vt 0.450000 0.687500
vt 0.462500 0.687500
vt 0.475000 0.687500
vt 0.487500 0.687500
vt 0.500000 0.687500
vt 0.512500 0.687500
vt 0.525000 0.687500
vt 0.537500 0.687500
vt 0.550000 0.687500
vt 0.562500 0.687500
vt 0.575000 0.687500
vt 0.587500 0.687500
vt 0.600000 0.687500
vt 0.612500 0.687500
vt 0.625000 0.687500
vt 0.648603 0.795466
vt 0.626409 0.751908
vt 0.591842 0.717341
vt 0.548284 0.695147
vt 0.500000 0.687500
vt 0.451716 0.695147
vt 0.408159 0.717341
vt 0.373591 0.751909
vt 0.351397 0.795466
vt 0.343750 0.843750
vt 0.351397 0.892034
vt 0.373591 0.935591
vt 0.408159 0.970159
vt 0.451716 0.992353
vt 0.500000 1.000000
vt 0.548284 0.992353
vt 0.591841 0.970159
vt 0.626409 0.935591
vt 0.648603 0.892034
vt 0.656250 0.843750
vt 0.500000 0.156250
vt 0.500000 0.843750
vn 0.902883 0.293363 0.314231
vn 0.768037 0.558012 0.314231
vn 0.809017 0.587785 0.000000
vn 0.951057 0.309016 -0.000000
vn 0.558012 0.768038 0.314231
vn 0.587785 0.809017 0.000000
vn 0.293364 0.902882 0.314231
vn 0.309017 0.951057 0.000000
vn 0.000000 0.949347 0.314231
vn -0.000000 1.000000 -0.000000
vn -0.293364 0.902882 0.314231
vn -0.309017 0.951056 0.000000
vn -0.558012 0.768037 0.314231
vn -0.587786 0.809017 0.000000
vn -0.768038 0.558012 0.314231
vn -0.809017 0.587785 0.000000
vn -0.902882 0.293364 0.314231
vn -0.951057 0.309017 -0.000000
vn -0.949347 -0.000000 0.314231
vn -1.000000 0.000000 -0.000000
vn -0.902882 -0.293364 0.314231
vn -0.951057 -0.309017 -0.000000
vn -0.768038 -0.558012 0.314231
vn -0.809017 -0.587785 0.000000
vn -0.558012 -0.768038 0.314231
vn -0.587785 -0.809017 0.000000
vn -0.293364 -0.902882 0.314231
vn -0.309017 -0.951057 0.000000
vn 0.000000 -0.949347 0.314231
vn 0.000000 -1.000000 0.000000
vn 0.293364 -0.902882 0.314231
vn 0.309017 -0.951057 0.000000
vn 0.558012 -0.768037 0.314231
vn 0.587785 -0.809017 0.000000
vn 0.768038 -0.558012 0.314231
vn 0.809017 -0.587785 0.000000
vn 0.902882 -0.293364 0.314231
vn 0.951057 -0.309017 0.000000
vn 0.949347 -0.000001 0.314231
vn 1.000000 -0.000001 0.000000
vn 0.768037 0.558012 -0.314231
vn 0.902883 0.293363 -0.314231
vn 0.558012 0.768038 -0.314231
vn 0.293364 0.902882 -0.314231
vn 0.000000 0.949347 -0.314231
vn -0.293364 0.902882 -0.314231
vn -0.558012 0.768037 -0.314231
vn -0.768038 0.558012 -0.314231
vn -0.902882 0.293364 -0.314231
vn -0.949347 -0.000000 -0.314231
vn -0.902882 -0.293364 -0.314231
vn -0.768038 -0.558012 -0.314231
vn -0.558012 -0.768038 -0.314231
vn -0.293364 -0.902882 -0.314231
vn 0.000000 -0.949347 -0.314231
vn 0.293364 -0.902882 -0.314231
vn 0.558012 -0.768037 -0.314231
vn 0.768038 -0.558012 -0.314231
vn 0.902882 -0.293364 -0.314231
vn 0.949347 -0.000001 -0.314231
vn 0.000000 -0.000000 -1.000000
vn 0.000000 -0.000000 -1.000000
vn 0.000000 -0.000000 -1.000000
vn 0.000000 -0.000000 -1.000000
vn 0.000000 -0.000000 -1.000000
vn 0.000000 -0.000000 -1.000000
vn 0.000000 -0.000000 -1.000000
vn 0.000000 -0.000000 -1.000000
vn 0.000000 -0.000000 -1.000000
vn 0.000000 -0.000000 -1.000000
vn 0.000000 -0.000000 -1.000000
vn 0.000000 -0.000000 -1.000000
vn 0.000000 -0.000000 -1.000000
vn 0.000000 -0.000000 -1.000000
vn 0.000000 -0.000000 -1.000000
vn 0.000000 -0.000000 -1.000000
vn 0.000000 -0.000000 -1.000000
vn 0.000000 -0.000000 -1.000000
vn 0.000000 -0.000000 -1.000000
vn 0.000000 -0.000000 -1.000000
vn 0.000000 -0.000000 -1.000000
vn 0.000000 0.000000 1.000000
vn 0.000000 0.000000 1.000000
vn 0.000000 0.000000 1.000000
vn 0.000000 0.000000 1.000000
vn 0.000000 0.000000 1.000000
vn 0.000000 0.000000 1.000000
vn 0.000000 0.000000 1.000000
vn 0.000000 0.000000 1.000000
vn 0.000000 0.000000 1.000000
vn 0.000000 0.000000 1.000000
vn 0.000000 0.000000 1.000000
vn 0.000000 0.000000 1.000000
vn 0.000000 0.000000 1.000000
vn 0.000000 0.000000 1.000000
vn 0.000000 0.000000 1.000000
vn 0.000000 0.000000 1.000000
vn 0.000000 0.000000 1.000000
vn 0.000000 0.000000 1.000000
vn 0.000000 0.000000 1.000000
vn 0.000000 0.000000 1.000000
vn 0.000000 0.000000 1.000000
s 1
f 1/21/1 2/22/2 22/43/3 21/42/4
f 2/22/2 3/23/5 23/44/6 22/43/3
f 3/23/5 4/24/7 24/45/8 23/44/6
f 4/24/7 5/25/9 25/46/10 24/45/8
f 5/25/9 6/26/11 26/47/12 25/46/10
f 6/26/11 7/27/13 27/48/14 26/47/12
f 7/27/13 8/28/15 28/49/16 27/48/14
f 8/28/15 9/29/17 29/50/18 28/49/16
f 9/29/17 10/30/19 30/51/20 29/50/18
f 10/30/19 11/31/21 31/52/22 30/51/20
f 11/31/21 12/32/23 32/53/24 31/52/22
f 12/32/23 13/33/25 33/54/26 32/53/24
f 13/33/25 14/34/27 34/55/28 33/54/26
f 14/34/27 15/35/29 35/56/30 34/55/28
f 15/35/29 16/36/31 36/57/32 35/56/30
f 16/36/31 17/37/33 37/58/34 36/57/32
f 17/37/33 18/38/35 38/59/36 37/58/34
f 18/38/35 19/39/37 39/60/38 38/59/36
f 19/39/37 20/40/39 40/61/40 39/60/38
f 20/40/39 1/41/1 21/62/4 40/61/40
f 21/42/4 22/43/3 42/64/41 41/63/42
f 22/43/3 23/44/6 43/65/43 42/64/41
f 23/44/6 24/45/8 44/66/44 43/65/43
f 24/45/8 25/46/10 45/67/45 44/66/44
f 25/46/10 26/47/12 46/68/46 45/67/45
f 26/47/12 27/48/14 47/69/47 46/68/46
f 27/48/14 28/49/16 48/70/48 47/69/47
f 28/49/16 29/50/18 49/71/49 48/70/48
f 29/50/18 30/51/20 50/72/50 49/71/49
f 30/51/20 31/52/22 51/73/51 50/72/50
f 31/52/22 32/53/24 52/74/52 51/73/51
f 32/53/24 33/54/26 53/75/53 52/74/52
f 33/54/26 34/55/28 54/76/54 53/75/53
f 34/55/28 35/56/30 55/77/55 54/76/54
f 35/56/30 36/57/32 56/78/56 55/77/55
f 36/57/32 37/58/34 57/79/57 56/78/56
f 37/58/34 38/59/36 58/80/58 57/79/57
f 38/59/36 39/60/38 59/81/59 58/80/58
f 39/60/38 40/61/40 60/82/60 59/81/59
f 40/61/40 21/62/4 41/83/42 60/82/60
s 2
f 2/2/61 1/1/62 61/104/63
f 3/3/64 2/2/61 61/104/63
f 4/4/65 3/3/64 61/104/63
f 5/5/66 4/4/65 61/104/63
f 6/6/67 5/5/66 61/104/63
f 7/7/68 6/6/67 61/104/63
f 8/8/69 7/7/68 61/104/63
f 9/9/70 8/8/69 61/104/63
f 10/10/71 9/9/70 61/104/63
f 11/11/72 10/10/71 61/104/63
f 12/12/73 11/11/72 61/104/63
f 13/13/74 12/12/73 61/104/63
f 14/14/75 13/13/74 61/104/63
f 15/15/76 14/14/75 61/104/63
f 16/16/77 15/15/76 61/104/63
f 17/17/78 16/16/77 61/104/63
f 18/18/79 17/17/78 61/104/63
f 19/19/80 18/18/79 61/104/63
f 20/20/81 19/19/80 61/104/63
f 1/1/62 20/20/81 61/104/63
s 3
f 41/102/82 42/101/83 62/105/84
f 42/101/83 43/100/85 62/105/84
f 43/100/85 44/99/86 62/105/84
f 44/99/86 45/98/87 62/105/84
f 45/98/87 46/97/88 62/105/84
f 46/97/88 47/96/89 62/105/84
f 47/96/89 48/95/90 62/105/84
f 48/95/90 49/94/91 62/105/84
f 49/94/91 50/93/92 62/105/84
f 50/93/92 51/92/93 62/105/84
f 51/92/93 52/91/94 62/105/84
f 52/91/94 53/90/95 62/105/84
f 53/90/95 54/89/96 62/105/84
f 54/89/96 55/88/97 62/105/84
f 55/88/97 56/87/98 62/105/84
f 56/87/98 57/86/99 62/105/84
f 57/86/99 58/85/100 62/105/84
f 58/85/100 59/84/101 62/105/84
f 59/84/101 60/103/102 62/105/84
f 60/103/102 41/102/82 62/105/84
