# This file uses centimeters as units for non-parametric coordinates.

v 0.000000 0.015082 2.200307
v 0.831687 0.015082 -0.046999
v 0.000000 0.221190 1.946780
v 0.707107 0.221190 -0.000000
v -0.707107 0.221190 0.000000
v -0.000000 0.221190 -1.481959
v -0.831687 0.015082 -0.046999
v -0.000000 0.015082 -1.666784
v 0.000000 1.326340 0.435080
v 0.232868 1.326340 0.056429
v -0.000000 1.326340 -0.397100
v -0.232868 1.326340 0.056429
v -0.707107 -0.217105 0.000000
v 0.000000 -0.217105 -1.377154
v 0.707107 -0.217105 -0.000000
v 0.000000 -0.217105 1.910677
v -0.407027 -0.648253 0.113207
v -0.000000 -0.648253 -0.679514
v 0.407027 -0.648253 0.113207
v 0.000000 -0.648253 0.977633
vt 0.375000 0.000000
vt 0.625000 0.000000
vt 0.375000 0.250000
vt 0.625000 0.250000
vt 0.375000 0.500000
vt 0.625000 0.500000
vt 0.375000 0.750000
vt 0.625000 0.750000
vt 0.375000 1.000000
vt 0.625000 1.000000
vt 0.875000 0.000000
vt 0.875000 0.250000
vt 0.125000 0.000000
vt 0.125000 0.250000
vt 0.375000 0.250000
vt 0.625000 0.250000
vt 0.625000 0.500000
vt 0.375000 0.500000
vt 0.375000 0.750000
vt 0.625000 0.750000
vt 0.625000 1.000000
vt 0.375000 1.000000
vt 0.375000 0.750000
vt 0.625000 0.750000
vt 0.625000 1.000000
vt 0.375000 1.000000
vn 0.938222 -0.012569 0.345805
vn 0.938195 -0.014519 0.345802
vn 0.848837 0.409243 0.334658
vn 0.849201 0.409642 0.333243
vn -0.000000 1.000000 0.000000
vn -0.000000 1.000000 0.000000
vn -0.000000 1.000000 0.000000
vn -0.000000 1.000000 0.000000
vn -0.821767 0.404735 -0.401109
vn -0.820488 0.407624 -0.400802
vn -0.892024 -0.037468 -0.450433
vn -0.891474 -0.049772 -0.450330
vn 0.000000 -1.000000 0.000000
vn 0.000000 -1.000000 0.000000
vn 0.000000 -1.000000 0.000000
vn 0.000000 -1.000000 0.000000
vn 0.891474 -0.049771 -0.450330
vn 0.892024 -0.037468 -0.450433
vn 0.820488 0.407624 -0.400802
vn 0.821767 0.404735 -0.401109
vn -0.938195 -0.014519 0.345802
vn -0.938222 -0.012569 0.345805
vn -0.849201 0.409642 0.333243
vn -0.848837 0.409243 0.334658
vn 0.846832 0.407068 0.342302
vn 0.846832 0.407068 0.342302
vn 0.829772 0.386114 -0.402981
vn 0.829772 0.386114 -0.402981
vn -0.829772 0.386114 -0.402981
vn -0.829772 0.386114 -0.402981
vn -0.846832 0.407068 0.342302
vn -0.846832 0.407068 0.342302
vn -0.772931 -0.495051 -0.396865
vn -0.772931 -0.495051 -0.396865
vn 0.772931 -0.495051 -0.396866
vn 0.772931 -0.495051 -0.396866
vn 0.860640 -0.397306 0.318507
vn 0.860640 -0.397306 0.318507
vn -0.860640 -0.397306 0.318507
vn -0.860640 -0.397306 0.318507
vn -0.715400 -0.594368 -0.367326
vn -0.715400 -0.594368 -0.367326
vn -0.715400 -0.594368 -0.367326
vn -0.715400 -0.594368 -0.367326
vn 0.715400 -0.594369 -0.367326
vn 0.715400 -0.594369 -0.367326
vn 0.715400 -0.594369 -0.367326
vn 0.715400 -0.594369 -0.367326
vn 0.768401 -0.560707 0.308493
vn 0.768401 -0.560707 0.308493
vn 0.768401 -0.560707 0.308493
vn 0.768401 -0.560707 0.308493
vn -0.768401 -0.560707 0.308494
vn -0.768401 -0.560707 0.308494
vn -0.768401 -0.560707 0.308494
vn -0.768401 -0.560706 0.308494
s 1
f 1/1/1 2/2/2 4/4/3 3/3/4
s off
f 9/15/5 10/16/6 11/17/7 12/18/8
s 2
f 5/5/9 6/6/10 8/8/11 7/7/12
s off
f 17/23/13 18/24/14 19/25/15 20/26/16
s 3
f 2/2/17 8/11/18 6/12/19 4/4/20
s 4
f 7/13/21 1/1/22 3/3/23 5/14/24
s 1
f 3/3/4 4/4/3 10/16/25 9/15/26
s 3
f 4/4/20 6/6/19 11/17/27 10/16/28
s 2
f 6/6/10 5/5/9 12/18/29 11/17/30
s 4
f 5/5/24 3/3/23 9/15/31 12/18/32
s 2
f 7/7/12 8/8/11 14/20/33 13/19/34
s 3
f 8/8/18 2/10/17 15/21/35 14/20/36
s 1
f 2/10/2 1/9/1 16/22/37 15/21/38
s 4
f 1/9/22 7/7/21 13/19/39 16/22/40
s off
f 13/19/41 14/20/42 18/24/43 17/23/44
f 14/20/45 15/21/46 19/25/47 18/24/48
f 15/21/49 16/22/50 20/26/51 19/25/52
f 16/22/53 13/19/54 17/23/55 20/26/56
