# This file uses centimeters as units for non-parametric coordinates.

v -0.893854 -0.055452 0.044464
v 0.893854 -0.055452 0.500000
v -0.893854 0.055452 0.044464
v 0.893854 0.055452 0.500000
v -0.893854 0.055452 -0.044464
v 0.893854 0.055452 -0.500000
v -0.893854 -0.055452 -0.044464
v 0.893854 -0.055452 -0.500000
v -0.218154 0.167603 0.026450
v 0.845280 0.167603 0.297430
v 0.845280 0.167603 -0.297430
v -0.218154 0.167603 -0.026450
vt 0.375000 0.000000
vt 0.625000 0.000000
vt 0.375000 0.250000
vt 0.625000 0.250000
vt 0.375000 0.500000
vt 0.625000 0.500000
vt 0.375000 0.750000
vt 0.625000 0.750000
vt 0.375000 1.000000
vt 0.625000 1.000000
vt 0.875000 0.000000
vt 0.875000 0.250000
vt 0.125000 0.000000
vt 0.125000 0.250000
vt 0.375000 0.250000
vt 0.625000 0.250000
vt 0.625000 0.500000
vt 0.375000 0.500000
vn -0.246925 0.000000 0.969035
vn -0.246925 0.000000 0.969035
vn -0.201472 0.578159 0.790659
vn -0.215451 0.488551 0.845517
vn 0.000000 1.000000 0.000000
vn 0.000000 1.000000 0.000000
vn 0.000000 1.000000 0.000000
vn 0.000000 1.000000 0.000000
vn -0.215451 0.488551 -0.845517
vn -0.201472 0.578159 -0.790659
vn -0.246925 0.000000 -0.969035
vn -0.246925 0.000000 -0.969035
vn 0.000000 -1.000000 0.000000
vn 0.000000 -1.000000 0.000000
vn 0.000000 -1.000000 0.000000
vn 0.000000 -1.000000 0.000000
vn 1.000000 0.000000 0.000000
vn 1.000000 0.000000 0.000000
vn 0.984339 0.176286 0.000000
vn 0.984339 0.176286 0.000000
vn -1.000000 0.000000 0.000000
vn -1.000000 0.000000 0.000000
vn -0.350107 0.936710 0.000000
vn -0.350107 0.936710 0.000000
vn -0.128359 0.854269 0.503734
vn -0.128359 0.854269 0.503734
vn 0.917629 0.397439 0.000000
vn 0.917629 0.397439 0.000000
vn -0.128359 0.854269 -0.503734
vn -0.128359 0.854269 -0.503734
vn -0.163737 0.986504 0.000000
vn -0.163737 0.986504 0.000000
s 1
f 1/1/1 2/2/2 4/4/3 3/3/4
s off
f 9/15/5 10/16/6 11/17/7 12/18/8
s 2
f 5/5/9 6/6/10 8/8/11 7/7/12
s off
f 7/7/13 8/8/14 2/10/15 1/9/16
s 3
f 2/2/17 8/11/18 6/12/19 4/4/20
s 4
f 7/13/21 1/1/22 3/3/23 5/14/24
s 1
f 3/3/4 4/4/3 10/16/25 9/15/26
s 3
f 4/4/20 6/6/19 11/17/27 10/16/28
s 2
f 6/6/10 5/5/9 12/18/29 11/17/30
s 4
f 5/5/24 3/3/23 9/15/31 12/18/32
